<svg width="28" height="28" viewBox="0 0 28 28" fill="none" xmlns="http://www.w3.org/2000/svg">
<rect x="0.484131" y="0.96875" width="27" height="27" rx="13.5" fill="#D8B074"/>
<g clip-path="url(#clip0_555_1135)">
<path d="M21.4841 12.3019V18.9481C21.4841 19.3164 21.353 19.6317 21.0907 19.8939C20.8284 20.1562 20.5131 20.2874 20.1448 20.2874H7.82342C7.45511 20.2874 7.13982 20.1562 6.87755 19.8939C6.61527 19.6317 6.48413 19.3164 6.48413 18.9481V12.3019C6.72967 12.5753 7.01147 12.818 7.32955 13.0301C9.34964 14.4029 10.7364 15.3655 11.4897 15.9179C11.8078 16.1523 12.0659 16.3351 12.264 16.4662C12.4621 16.5973 12.7258 16.7313 13.055 16.868C13.3842 17.0047 13.6912 17.0731 13.9758 17.0731H13.9841H13.9925C14.2771 17.0731 14.584 17.0047 14.9133 16.868C15.2425 16.7313 15.5062 16.5973 15.7043 16.4662C15.9024 16.3351 16.1605 16.1523 16.4785 15.9179C17.4272 15.2316 18.8167 14.2689 20.6471 13.0301C20.9652 12.8125 21.2442 12.5697 21.4841 12.3019ZM21.4841 9.84093C21.4841 10.2818 21.3474 10.7031 21.074 11.1049C20.8005 11.5067 20.4601 11.8499 20.0528 12.1345C17.9546 13.5909 16.6488 14.4977 16.1354 14.8549C16.0796 14.8939 15.961 14.979 15.7796 15.1102C15.5982 15.2413 15.4476 15.3473 15.3276 15.4283C15.2076 15.5092 15.0625 15.5999 14.8923 15.7003C14.7221 15.8007 14.5617 15.8761 14.411 15.9263C14.2604 15.9765 14.1208 16.0016 13.9925 16.0016H13.9841H13.9758C13.8474 16.0016 13.7079 15.9765 13.5572 15.9263C13.4066 15.8761 13.2461 15.8007 13.0759 15.7003C12.9057 15.5999 12.7606 15.5092 12.6407 15.4283C12.5207 15.3473 12.37 15.2413 12.1887 15.1102C12.0073 14.979 11.8887 14.8939 11.8329 14.8549C11.3251 14.4977 10.5941 13.9885 9.63982 13.3273C8.68558 12.666 8.1136 12.2684 7.92386 12.1345C7.57788 11.9001 7.25143 11.5778 6.94451 11.1677C6.63759 10.7575 6.48413 10.3766 6.48413 10.0251C6.48413 9.58981 6.59992 9.22709 6.83151 8.93691C7.06309 8.64673 7.39373 8.50164 7.82342 8.50164H20.1448C20.5076 8.50164 20.8215 8.63278 21.0865 8.89505C21.3516 9.15733 21.4841 9.47262 21.4841 9.84093Z" fill="white"/>
</g>
<defs>
<clipPath id="clip0_555_1135">
<rect width="15.02" height="15" fill="white" transform="matrix(1 0 0 -1 6.47412 21.3588)"/>
</clipPath>
</defs>
</svg>
