<svg width="27" height="28" viewBox="0 0 27 28" fill="none" xmlns="http://www.w3.org/2000/svg">
<rect y="0.410156" width="27" height="27" rx="13.5" fill="#D8B074"/>
<g clip-path="url(#clip0_822_1518)">
<path d="M19.4688 10.3789C19.6146 10.5247 19.7396 10.7227 19.8438 10.9727C19.9479 11.2227 20 11.4518 20 11.6602V20.6602C20 20.8685 19.9271 21.0456 19.7812 21.1914C19.6354 21.3372 19.4583 21.4102 19.25 21.4102H8.75C8.54167 21.4102 8.36458 21.3372 8.21875 21.1914C8.07292 21.0456 8 20.8685 8 20.6602V8.16016C8 7.95182 8.07292 7.77474 8.21875 7.62891C8.36458 7.48307 8.54167 7.41016 8.75 7.41016H15.75C15.9583 7.41016 16.1875 7.46224 16.4375 7.56641C16.6875 7.67057 16.8854 7.79557 17.0312 7.94141L19.4688 10.3789ZM16 8.47266V11.4102H18.9375C18.8854 11.2591 18.8281 11.1523 18.7656 11.0898L16.3203 8.64453C16.2578 8.58203 16.151 8.52474 16 8.47266ZM19 20.4102V12.4102H15.75C15.5417 12.4102 15.3646 12.3372 15.2188 12.1914C15.0729 12.0456 15 11.8685 15 11.6602V8.41016H9V20.4102H19ZM14.9844 15.7773C15.1562 15.9128 15.375 16.0586 15.6406 16.2148C15.9479 16.1784 16.2526 16.1602 16.5547 16.1602C17.3203 16.1602 17.7812 16.2878 17.9375 16.543C18.0208 16.6576 18.026 16.793 17.9531 16.9492C17.9531 16.9544 17.9505 16.9596 17.9453 16.9648C17.9401 16.9701 17.9349 16.9753 17.9297 16.9805V16.9883C17.8984 17.1862 17.7135 17.2852 17.375 17.2852C17.125 17.2852 16.8255 17.2331 16.4766 17.1289C16.1276 17.0247 15.7891 16.8867 15.4609 16.7148C14.3099 16.8398 13.2891 17.056 12.3984 17.3633C11.6016 18.7279 10.9714 19.4102 10.5078 19.4102C10.4297 19.4102 10.3568 19.3919 10.2891 19.3555L10.1016 19.2617C10.0964 19.2565 10.0807 19.2435 10.0547 19.2227C10.0026 19.1706 9.98698 19.0768 10.0078 18.9414C10.0547 18.7331 10.2005 18.4948 10.4453 18.2266C10.6901 17.9583 11.0339 17.707 11.4766 17.4727C11.5495 17.4258 11.6094 17.4414 11.6562 17.5195C11.6667 17.5299 11.6719 17.5404 11.6719 17.5508C11.9427 17.1081 12.2214 16.5951 12.5078 16.0117C12.862 15.3034 13.1328 14.6211 13.3203 13.9648C13.1953 13.5378 13.1159 13.1224 13.082 12.7188C13.0482 12.3151 13.0651 11.9831 13.1328 11.7227C13.1901 11.5143 13.2995 11.4102 13.4609 11.4102H13.625H13.6328C13.7526 11.4102 13.8438 11.4492 13.9062 11.5273C14 11.6367 14.0234 11.8138 13.9766 12.0586C13.9661 12.0898 13.9557 12.1107 13.9453 12.1211C13.9505 12.1367 13.9531 12.1576 13.9531 12.1836V12.418C13.9427 13.0586 13.9062 13.5586 13.8438 13.918C14.1302 14.7721 14.5104 15.3919 14.9844 15.7773ZM10.4844 18.9883C10.7552 18.8633 11.112 18.4518 11.5547 17.7539C11.2891 17.9622 11.0612 18.181 10.8711 18.4102C10.681 18.6393 10.5521 18.832 10.4844 18.9883ZM13.5938 11.8008C13.5156 12.0195 13.5104 12.3633 13.5781 12.832C13.5833 12.7956 13.6016 12.681 13.6328 12.4883C13.6328 12.4727 13.651 12.3607 13.6875 12.1523C13.6927 12.1315 13.7031 12.1107 13.7188 12.0898C13.7135 12.0846 13.7109 12.0794 13.7109 12.0742C13.7057 12.0638 13.7031 12.056 13.7031 12.0508C13.6979 11.9362 13.6641 11.8424 13.6016 11.7695C13.6016 11.7747 13.599 11.7799 13.5938 11.7852V11.8008ZM12.625 16.9648C13.3281 16.6836 14.0677 16.4727 14.8438 16.332C14.8333 16.3268 14.7995 16.3021 14.7422 16.2578C14.6849 16.2135 14.6432 16.1784 14.6172 16.1523C14.2214 15.8034 13.8906 15.3451 13.625 14.7773C13.4844 15.2253 13.2682 15.7383 12.9766 16.3164C12.8203 16.6081 12.7031 16.8242 12.625 16.9648ZM17.6719 16.8398C17.5469 16.7148 17.1823 16.6523 16.5781 16.6523C16.974 16.7982 17.2969 16.8711 17.5469 16.8711C17.6198 16.8711 17.6667 16.8685 17.6875 16.8633C17.6875 16.8581 17.6823 16.8503 17.6719 16.8398Z" fill="white"/>
</g>
<defs>
<clipPath id="clip0_822_1518">
<rect width="12" height="14" fill="white" transform="matrix(1 0 0 -1 8 21.4102)"/>
</clipPath>
</defs>
</svg>
