<svg width="28" height="28" viewBox="0 0 28 28" fill="none" xmlns="http://www.w3.org/2000/svg">
<rect x="0.484131" y="0.96875" width="27" height="27" rx="13.5" fill="#D8B074"/>
<g clip-path="url(#clip0_555_1138)">
<path d="M21.5556 18.4241C21.5556 18.6049 21.5221 18.841 21.4551 19.1323C21.3882 19.4236 21.3179 19.6529 21.2442 19.8203C21.1036 20.1552 20.6951 20.5101 20.0187 20.8851C19.3893 21.2266 18.7665 21.3973 18.1504 21.3973C17.9696 21.3973 17.7922 21.3856 17.6181 21.3622C17.444 21.3387 17.2514 21.2969 17.0405 21.2366C16.8296 21.1764 16.6722 21.1278 16.5684 21.091C16.4646 21.0541 16.2788 20.9855 16.0109 20.8851C15.7431 20.7846 15.579 20.7243 15.5187 20.7043C14.8625 20.4699 14.2766 20.192 13.7609 19.8706C12.9105 19.3415 12.0266 18.6183 11.1091 17.7009C10.1917 16.7835 9.46852 15.8996 8.93951 15.0491C8.61808 14.5335 8.34018 13.9476 8.1058 13.2913C8.08571 13.231 8.02544 13.067 7.925 12.7991C7.82455 12.5313 7.75591 12.3454 7.71908 12.2416C7.68225 12.1379 7.6337 11.9805 7.57343 11.7695C7.51317 11.5586 7.47131 11.3661 7.44788 11.192C7.42444 11.0179 7.41272 10.8404 7.41272 10.6596C7.41272 10.0435 7.58348 9.42078 7.925 8.79131C8.3 8.11497 8.65491 7.70649 8.98973 7.56587C9.15714 7.4922 9.38649 7.42189 9.67779 7.35493C9.96908 7.28796 10.2051 7.25448 10.3859 7.25448C10.4797 7.25448 10.55 7.26453 10.5969 7.28462C10.7174 7.32479 10.8949 7.57926 11.1292 8.04801C11.2029 8.17524 11.3033 8.35604 11.4306 8.59042C11.5578 8.82479 11.675 9.03741 11.7821 9.22825C11.8893 9.4191 11.9931 9.59823 12.0935 9.76564C12.1136 9.79243 12.1722 9.87613 12.2693 10.0168C12.3664 10.1574 12.4384 10.2762 12.4853 10.3733C12.5321 10.4704 12.5556 10.5659 12.5556 10.6596C12.5556 10.7935 12.4602 10.961 12.2693 11.1618C12.0785 11.3627 11.8709 11.5469 11.6465 11.7143C11.4222 11.8817 11.2146 12.0592 11.0238 12.2467C10.8329 12.4342 10.7375 12.5882 10.7375 12.7087C10.7375 12.769 10.7542 12.8443 10.7877 12.9347C10.8212 13.0251 10.8497 13.0938 10.8731 13.1406C10.8965 13.1875 10.9434 13.2679 11.0137 13.3817C11.084 13.4956 11.1225 13.5592 11.1292 13.5726C11.6382 14.49 12.2208 15.2768 12.877 15.9331C13.5333 16.5893 14.3201 17.1719 15.2375 17.6808C15.2509 17.6875 15.3145 17.726 15.4283 17.7963C15.5422 17.8666 15.6225 17.9135 15.6694 17.937C15.7163 17.9604 15.7849 17.9889 15.8753 18.0223C15.9657 18.0558 16.0411 18.0726 16.1013 18.0726C16.2219 18.0726 16.3759 17.9771 16.5634 17.7863C16.7509 17.5954 16.9283 17.3879 17.0958 17.1635C17.2632 16.9392 17.4473 16.7316 17.6482 16.5408C17.8491 16.3499 18.0165 16.2545 18.1504 16.2545C18.2442 16.2545 18.3396 16.2779 18.4367 16.3248C18.5338 16.3717 18.6527 16.4437 18.7933 16.5408C18.9339 16.6379 19.0176 16.6964 19.0444 16.7165C19.2118 16.817 19.391 16.9208 19.5818 17.0279C19.7727 17.1351 19.9853 17.2522 20.2196 17.3795C20.454 17.5067 20.6348 17.6072 20.762 17.6808C21.2308 17.9152 21.4853 18.0927 21.5254 18.2132C21.5455 18.2601 21.5556 18.3304 21.5556 18.4241Z" fill="white"/>
</g>
<defs>
<clipPath id="clip0_555_1138">
<rect width="14.16" height="18" fill="white" transform="matrix(1 0 0 -1 7.40417 23.9688)"/>
</clipPath>
</defs>
</svg>
